# xmcd
#
# Track frame offsets:
#	150
#	17867
#	38699
#	60663
#	78439
#	96673
#	120242
#	135627
#	151869
#	173847
#	190650
#	209860
#	232958
#	250687
#	268879
#	287648
#
# Disc length: 4042 seconds
#
# Revision: 2
# Processed by: cddbd v1.5.2PL0 Copyright (c) Steve Scherf et al.
# Submitted via: audiograbber 1.83.01
#
DISCID=dc0fc810
DTITLE=Graeme Connors - It's All Good - More Of The Best...
DYEAR=2006
DGENRE=Country
TTITLE0=It's All Good
TTITLE1=The Simple Truth
TTITLE2=Louisa
TTITLE3=You're Getting To Me (featuring Mark McDuff)
TTITLE4=Whatever It Takes
TTITLE5=All That Matters Now (featuring Elizabeth Lord)
TTITLE6=I Won't Forget Loving You
TTITLE7=Cyclone Season
TTITLE8=Let The Cane Fields Burn
TTITLE9=A Little Further North Each Year
TTITLE10=Sicilian Born
TTITLE11=When The Rain Tumbles Down In July
TTITLE12=What If ...
TTITLE13=On A Roll
TTITLE14=A Soft Place To Fall
TTITLE15=I've Got A Plan
EXTD=
EXTT0=
EXTT1=
EXTT2=
EXTT3=
EXTT4=
EXTT5=
EXTT6=
EXTT7=
EXTT8=
EXTT9=
EXTT10=
EXTT11=
EXTT12=
EXTT13=
EXTT14=
EXTT15=
PLAYORDER=
